<svg width="94" height="67" viewBox="0 0 94 67" fill="none" xmlns="http://www.w3.org/2000/svg">
<path d="M79.2285 64.0012C77.9975 63.751 76.8933 63.2803 76.0652 62.2751C75.3415 61.3964 74.9521 60.3896 74.9506 59.2682C74.9357 52.8955 74.9178 46.5214 74.9566 40.1488C74.9685 38.1233 75.9757 36.6013 77.8453 35.8045C79.6642 35.0286 81.3936 35.3458 82.8917 36.6534C83.969 37.5931 84.4271 38.8382 84.4763 40.1904C85.2731 40.5434 86.0266 40.8785 86.7966 41.2195C86.7876 41.227 86.8369 41.2032 86.8369 41.1793C86.7652 38.0861 86.8518 34.9794 86.5728 31.9041C86.2743 28.6232 84.9986 25.6133 83.1812 22.8566C83.0842 22.7092 82.841 22.5826 82.6619 22.5767C80.9862 22.5335 79.6001 21.8514 78.4049 20.7165C75.3803 17.8482 71.7619 16.131 67.7048 15.3477C62.4883 14.3409 57.533 15.1809 52.8358 17.6486C51.0616 18.5809 49.5501 19.8587 48.058 21.1693C47.0702 22.0375 45.9019 22.5022 44.5888 22.535C44.1262 22.5469 43.9024 22.7316 43.6846 23.1203C41.9313 26.2492 41.0704 29.6538 40.5123 33.158C40.0855 35.8373 40.1452 38.5344 40.1646 41.2404C40.954 40.8889 41.7209 40.5479 42.5326 40.1875C42.5819 38.8367 43.04 37.5916 44.1173 36.6519C45.6154 35.3458 47.3447 35.0256 49.1637 35.803C51.0572 36.6132 52.0076 38.1561 52.0599 40.2068C52.1002 41.7751 52.0688 43.3433 52.0688 44.9115C52.0688 49.3585 51.9912 53.8085 52.0972 58.2525C52.1643 61.097 50.9109 63.4337 47.7804 63.9982C47.4626 63.9982 47.1448 63.9982 46.827 63.9982C46.7912 63.9803 46.7583 63.9505 46.721 63.9461C44.3918 63.6467 42.6639 61.7106 42.5341 59.4454C42.5252 59.2861 42.2969 59.0582 42.1253 59.0031C40.0393 58.3434 38.6561 56.9881 38.0234 54.8927C37.9279 54.5784 37.7921 54.4682 37.4639 54.4265C34.6408 54.0602 33.0099 52.1971 33.0084 49.351C32.9994 44.6896 32.9965 40.0236 33.0054 35.3592C33.0099 32.8498 33.2814 30.3701 33.8932 27.9321C34.7527 24.5142 36.1821 21.354 38.1428 18.426C38.3084 18.1788 38.383 17.805 38.3517 17.5042C38.1413 15.4549 38.7247 13.6931 40.2079 12.2634C45.4438 7.22064 51.7376 4.37759 58.8893 3.34403C59.8279 3.2085 60.7724 3.11319 61.7139 3C62.9046 3 64.0969 3 65.2876 3C65.4398 3.03425 65.592 3.07893 65.7457 3.10127C67.4706 3.34849 69.2208 3.48402 70.9189 3.85932C76.9321 5.18925 82.2486 7.88486 86.71 12.1829C88.1902 13.6097 88.8811 15.3358 88.6319 17.3865C88.5737 17.8631 88.6826 18.2131 88.9378 18.5913C91.2879 22.0748 92.8442 25.8844 93.5335 30.0335C93.7305 31.222 93.8469 32.4238 93.9991 33.6197C93.9991 39.1792 93.9991 44.7402 93.9991 50.2997C93.9797 50.334 93.9483 50.3667 93.9409 50.4025C93.5664 52.6617 91.7549 54.294 89.5182 54.434C89.1661 54.4563 89.0691 54.6216 88.9781 54.9195C88.3424 56.9836 86.9831 58.3448 84.918 58.9718C84.5688 59.0776 84.4584 59.231 84.4331 59.5765C84.3644 60.5475 84.0168 61.4143 83.4109 62.1872C82.5813 63.2461 81.4503 63.7435 80.1775 63.9997C79.8627 64.0012 79.5448 64.0012 79.2285 64.0012ZM64.0894 5.37243C57.3122 5.45583 51.566 7.08064 46.3286 10.4137C44.5664 11.5351 42.8803 12.7816 41.518 14.3752C39.8185 16.3619 40.8197 19.4 43.3503 20.0627C44.7425 20.4276 45.8869 19.9481 46.9478 19.0188C48.049 18.0537 49.1681 17.0752 50.4066 16.3083C55.4052 13.2105 60.853 12.0355 66.6976 12.7682C69.7416 13.1495 72.6065 14.0862 75.3072 15.5353C77.2276 16.5659 78.8958 17.9271 80.5177 19.3687C81.5905 20.3219 82.8917 20.441 84.1973 19.8766C86.5981 18.8386 87.0413 15.7751 85.0612 13.8986C79.0226 8.17527 71.7351 5.58838 64.0894 5.37243ZM49.6814 49.704C49.6814 49.2676 49.6814 48.8298 49.6814 48.3934C49.6814 45.674 49.6934 42.9546 49.6754 40.2351C49.6665 38.7354 48.4832 37.6602 47.0538 37.8001C45.7855 37.9252 44.92 38.9529 44.9171 40.3677C44.9111 44.5362 44.9156 48.7047 44.9156 52.8747C44.9156 54.9597 44.9081 57.0432 44.9185 59.1282C44.9245 60.2735 45.5736 61.176 46.5733 61.4902C48.1565 61.9876 49.6665 60.8483 49.6754 59.1133C49.6934 55.9769 49.6814 52.8404 49.6814 49.704ZM82.0874 49.7055C82.0874 46.5691 82.0964 43.4326 82.0844 40.2962C82.0785 38.7697 80.9609 37.6974 79.521 37.7957C78.2318 37.885 77.3261 38.9305 77.3246 40.3662C77.3201 46.4603 77.3231 52.5545 77.3231 58.6502C77.3231 58.9078 77.3156 59.1669 77.338 59.4231C77.4245 60.4105 78.1005 61.2296 79.0375 61.5021C80.6102 61.9579 82.074 60.829 82.083 59.1148C82.0979 55.9784 82.0874 52.8419 82.0874 49.7055ZM39.6409 20.5185C37.5042 23.8679 36.1299 27.4868 35.6599 31.3947C35.0989 36.0577 35.457 40.7534 35.4047 45.4342C35.4047 45.4476 35.4227 45.4625 35.4122 45.4476C36.1792 45.2421 36.9357 45.0411 37.7399 44.8251C37.7235 44.8594 37.7534 44.8251 37.7548 44.7894C37.7623 44.4915 37.7623 44.1936 37.7683 43.8973C37.8295 40.2485 37.5788 36.5923 38.1234 32.9585C38.5979 29.7863 39.3872 26.7065 40.6764 23.7636C40.9435 23.1545 41.2658 22.5707 41.5448 22.0122C40.8913 21.4999 40.287 21.0263 39.6409 20.5185ZM85.5029 21.9914C85.5715 22.1239 85.6357 22.2654 85.7148 22.3994C88.1634 26.5099 89.2795 30.9673 89.2392 35.739C89.2153 38.5776 89.2347 41.4161 89.2347 44.2547C89.2347 44.4677 89.2347 44.6821 89.2347 44.8206C90.0658 45.0425 90.8209 45.2451 91.5982 45.4521C91.6027 45.3687 91.6162 45.2555 91.6162 45.1423C91.6162 41.7676 91.6311 38.3929 91.6102 35.0182C91.5878 31.1594 90.8044 27.4556 89.2108 23.9394C88.6752 22.7584 88.0142 21.6325 87.4084 20.4753C86.7339 21.0114 86.149 21.4761 85.5029 21.9914ZM42.5058 42.8056C41.142 43.306 40.2004 44.4856 40.1751 45.8795C40.1288 48.4158 40.1303 50.955 40.1736 53.4928C40.1975 54.9195 41.2032 56.175 42.5058 56.5637C42.5058 51.9871 42.5058 47.418 42.5058 42.8056ZM84.5121 42.8339C84.5121 47.4373 84.5121 52.0005 84.5121 56.58C85.87 56.093 86.8115 54.8867 86.8324 53.463C86.8712 50.9461 86.8727 48.4262 86.8309 45.9093C86.807 44.4811 85.8118 43.2331 84.5121 42.8339ZM37.7399 47.348C36.3776 47.3792 35.3525 48.447 35.3913 49.7666C35.4286 51.0399 36.4656 52.0467 37.7399 52.0303C37.7399 50.4695 37.7399 48.9087 37.7399 47.348ZM89.2556 52.0541C90.6955 51.9692 91.6908 50.888 91.6087 49.5521C91.5311 48.2951 90.4553 47.2943 89.2556 47.3837C89.2556 48.9251 89.2556 50.4665 89.2556 52.0541Z" fill="black"/>
<path d="M61.0865 51.4199C62.0504 48.0497 63.0128 44.6794 63.9767 41.3107C64.211 40.4916 64.4408 39.671 64.684 38.8548C64.8974 38.1385 65.3405 37.7691 65.9314 37.7915C66.4984 37.8138 66.9043 38.1861 67.0833 38.8906C67.7548 41.5415 68.4188 44.1939 69.0873 46.8448C69.1246 46.9953 69.1753 47.1427 69.2275 47.3155C69.9079 47.3155 70.5615 47.305 71.215 47.3184C71.9999 47.3348 72.5266 47.801 72.5475 48.4726C72.5699 49.1577 72.0223 49.6775 71.2165 49.6939C70.284 49.7117 69.3514 49.7087 68.4188 49.6953C67.6563 49.6834 67.2684 49.3692 67.0729 48.6052C66.6641 47.0131 66.2671 45.4181 65.827 43.6697C65.7285 43.9482 65.6673 44.0926 65.624 44.2416C64.5602 47.9559 63.4963 51.6701 62.4339 55.3844C62.4175 55.441 62.407 55.5006 62.3906 55.5572C62.134 56.4358 61.7341 56.838 61.1178 56.838C60.5225 56.838 60.13 56.4656 59.848 55.6197C59.2392 53.7968 58.6245 51.9754 58.0336 50.1466C57.9262 49.813 57.7844 49.667 57.4159 49.6894C56.8623 49.7221 56.3042 49.7132 55.7492 49.6939C54.9777 49.6656 54.4495 49.1637 54.4555 48.495C54.4614 47.8233 54.9912 47.3333 55.7656 47.3199C56.6981 47.3035 57.6307 47.3095 58.5633 47.3184C59.3153 47.3259 59.6749 47.5895 59.9256 48.3192C60.2778 49.3454 60.6165 50.3774 60.9597 51.4065C61.0029 51.411 61.0447 51.4155 61.0865 51.4199Z" fill="black"/>
<path d="M63.5843 7.59326C65.821 7.88069 68.0607 8.14728 70.2929 8.46598C71.1285 8.58513 71.5508 9.1719 71.424 9.85251C71.2897 10.5689 70.6883 10.9322 69.8348 10.7714C66.9565 10.2293 64.0603 9.98059 61.1357 10.2546C58.7021 10.4825 56.3057 10.895 53.9974 11.7365C53.7557 11.8243 53.5154 11.9196 53.2663 11.9852C52.6485 12.149 52.0576 11.872 51.8398 11.3314C51.5951 10.7223 51.8174 10.0595 52.462 9.79592C53.3215 9.44444 54.2048 9.13616 55.1001 8.89043C57.8665 8.13089 60.6911 7.76453 63.5619 7.75559C63.5694 7.70198 63.5769 7.64837 63.5843 7.59326Z" fill="black"/>
<path d="M74.0203 11.9522C73.3757 11.9463 72.8519 11.4131 72.8594 10.7712C72.8668 10.1383 73.4159 9.59468 74.0441 9.60213C74.6768 9.60957 75.208 10.1561 75.2005 10.7965C75.1946 11.4444 74.6693 11.9582 74.0203 11.9522Z" fill="black"/>
</svg>
