<svg width="94" height="67" viewBox="0 0 94 67" fill="none" xmlns="http://www.w3.org/2000/svg">
<path d="M38.4761 62.9993C37.9665 62.6673 37.7341 62.1998 37.6272 61.5922C36.442 54.7905 35.2322 47.9918 34.0325 41.1916C33.8881 40.3777 34.2245 39.8235 35.0431 39.6691C37.0801 39.2866 39.1156 38.8898 41.1671 38.6069C43.1709 38.3313 44.8498 39.6344 45.2699 41.6491C45.3118 41.8511 45.3551 42.0532 45.4057 42.2913C46.7237 41.8382 47.9898 41.4023 49.1967 40.9881C49.0697 39.6936 48.8805 38.4453 48.8387 37.1897C48.7477 34.4448 49.4652 31.8774 50.7169 29.4471C53.0325 24.9445 55.3366 20.436 57.6695 15.942C57.902 15.4946 57.8803 15.167 57.6594 14.737C56.5391 12.552 55.4463 10.3555 54.3578 8.1547C53.7572 6.93956 53.9348 5.7273 54.8068 4.86284C55.6224 4.05323 56.8365 3.83964 57.8919 4.35485C58.426 4.61462 58.9313 4.93067 59.4496 5.22508C60.4255 5.77925 60.7604 5.76193 61.6194 5.03747C62.8422 4.0056 64.1833 3.67512 65.6746 4.36206C66.0875 4.55256 66.4484 4.85707 66.8281 5.11684C67.4792 5.56278 67.983 5.55268 68.6168 5.07354C70.4199 3.70831 71.8217 3.65491 73.6393 5.03747C74.5372 5.72153 75.3269 5.82399 76.2422 5.15725C76.6277 4.87583 77.0665 4.66802 77.4881 4.43855C78.6791 3.78913 79.8716 3.9118 80.7854 4.77048C81.6848 5.61473 81.9013 6.83565 81.3167 8.04646C80.2253 10.3093 79.1194 12.565 77.9948 14.8106C77.8028 15.1945 77.797 15.4816 77.9948 15.8699C80.4519 20.7088 82.8902 25.5578 85.3243 30.4097C85.5552 30.8701 85.74 31.3593 85.9017 31.85C86.1125 32.4937 85.8295 33.094 85.2506 33.3249C84.6818 33.5529 84.0827 33.2903 83.7766 32.6741C81.2012 27.4888 78.6213 22.3049 76.0632 17.1095C75.8481 16.6723 75.6128 16.502 75.1147 16.5048C70.2741 16.5251 65.4321 16.5222 60.5915 16.5077C60.1396 16.5063 59.8841 16.6203 59.6632 17.0533C57.3707 21.5675 55.0536 26.0701 52.7351 30.5714C51.251 33.4534 50.7645 36.4768 51.3896 39.6676C51.4113 39.7802 51.4387 39.8928 51.4719 40.0024C51.4878 40.0558 51.5239 40.102 51.4993 40.0573C52.8463 39.7773 54.1427 39.3934 55.4651 39.2578C58.3596 38.9605 60.9582 39.8321 63.2926 41.5394C65.8652 43.4213 68.4248 45.3205 71.0205 47.1706C72.2794 48.0668 73.2914 49.0698 73.2697 50.7439C75.0165 50.9373 76.4862 50.5087 77.7176 49.2618C80.4028 46.5414 83.1126 43.8456 85.818 41.1454C87.2833 39.6835 89.0734 39.3371 90.7538 40.2016C91.7716 40.7255 92.4646 41.5394 92.7923 42.6507C92.8457 42.831 92.928 43.0028 92.9973 43.1789C92.9973 43.5627 92.9973 43.9466 92.9973 44.3305C92.7793 45.2123 92.4141 46.0147 91.8149 46.716C90.4189 48.3526 89.0561 50.0166 87.6586 51.6517C86.3608 53.1684 85.1366 54.7689 83.7001 56.1413C80.4274 59.2672 76.4385 60.6945 71.9228 60.6902C66.7559 60.6859 61.5876 60.6888 56.4208 60.6888C55.3712 60.6888 54.8284 60.289 54.8356 59.5256C54.8414 58.7621 55.3698 58.3855 56.4395 58.3855C61.6266 58.3855 66.8137 58.3927 71.9993 58.3826C76.3086 58.3739 80 56.8802 82.9105 53.6634C84.3657 52.0558 85.7285 50.3644 87.1288 48.7062C88.1697 47.4737 89.2221 46.2513 90.2327 44.9944C91.122 43.8889 90.6196 42.4096 89.2828 42.1037C88.5234 41.9291 87.9474 42.2725 87.4334 42.7892C84.7208 45.5081 81.9995 48.2198 79.2912 50.9445C78.2893 51.9518 77.13 52.7023 75.7297 52.9303C74.7523 53.0891 73.7418 53.0371 72.7457 53.0934C72.5493 53.1049 72.3039 53.1295 72.1696 53.2478C70.7953 54.4586 69.3155 54.499 67.7376 53.7096C65.8002 52.7384 63.834 51.8191 61.9254 50.793C60.6088 50.0844 59.2821 49.5879 57.7634 49.7828C57.6334 49.8001 57.4948 49.7756 57.362 49.7554C56.7903 49.6702 56.376 49.2156 56.3616 48.6643C56.3471 48.1246 56.7384 47.5935 57.3158 47.5473C58.7869 47.4319 60.2421 47.3496 61.6396 48.0827C64 49.321 66.3964 50.4899 68.8016 51.6416C69.1971 51.8306 69.7616 51.9432 70.1557 51.8119C71.1981 51.4641 71.2399 50.2013 70.2698 49.4898C67.4532 47.4232 64.6352 45.3551 61.8056 43.3059C59.6271 41.7285 57.1946 41.1209 54.5584 41.6967C53.2173 41.9897 51.9223 42.5063 50.6144 42.9436C49.0191 43.4776 47.4297 44.0332 45.794 44.596C46.0293 45.9411 46.256 47.2414 46.4841 48.5416C47.0225 51.6214 47.587 54.6967 48.0894 57.7822C48.3623 59.4592 47.382 61.1304 45.807 61.6889C45.0736 61.9486 44.2767 62.0381 43.5058 62.1897C42.0982 62.4653 40.6892 62.728 39.2817 62.9964C39.0146 62.9993 38.7461 62.9993 38.4761 62.9993ZM67.8733 14.2117C70.3116 14.2117 72.7485 14.203 75.1869 14.2203C75.5824 14.2232 75.7976 14.115 75.9751 13.7397C76.785 12.0253 77.6339 10.3281 78.4683 8.62373C78.7036 8.14171 78.9678 7.6698 79.1598 7.17191C79.2421 6.95976 79.1728 6.68989 79.1743 6.44599C78.9491 6.46764 78.6921 6.42868 78.503 6.52392C77.9385 6.80678 77.4217 7.19355 76.8442 7.44178C76.2913 7.6799 75.695 7.87906 75.1003 7.94833C73.9988 8.07388 73.1196 7.50239 72.2707 6.87317C71.328 6.17468 70.9469 6.19488 70.0229 6.90348C68.5562 8.02914 66.9595 8.05079 65.4566 6.96698C64.2107 6.06788 64.0505 6.07799 62.8104 7.04924C61.5154 8.06234 60.1295 8.19655 58.6729 7.42879C58.1806 7.17046 57.7201 6.84864 57.2191 6.6134C56.9939 6.50805 56.7023 6.54124 56.441 6.51238C56.4626 6.77648 56.4107 7.07521 56.5189 7.29746C57.5714 9.44922 58.6584 11.5837 59.7166 13.7325C59.8913 14.0861 60.0949 14.2275 60.5034 14.2246C62.9591 14.2016 65.4162 14.2117 67.8733 14.2117ZM36.4737 41.7458C37.581 48.0178 38.6782 54.2378 39.7869 60.5214C41.5049 60.2053 43.1694 59.9369 44.8152 59.5819C45.5991 59.4116 45.9355 58.7261 45.7882 57.876C45.1487 54.2104 44.5034 50.5462 43.8595 46.882C43.5939 45.371 43.3326 43.86 43.0597 42.349C42.8735 41.3186 42.3422 40.7745 41.4702 40.8972C39.823 41.1281 38.1874 41.4485 36.4737 41.7458Z" fill="black"/>
<path d="M63.0135 35.2623C62.9789 34.4758 63.3412 33.9837 64.0154 33.9C64.6521 33.8206 65.2266 34.2449 65.2685 35.0199C65.3566 36.6492 67.1655 37.4444 68.4402 37.098C69.5403 36.7979 70.3213 35.9233 70.2737 34.9535C70.2232 33.9303 69.3209 33.0817 68.1847 32.9042C67.3214 32.7686 66.4133 32.6805 65.6265 32.337C63.809 31.5419 62.9009 29.9414 63.0193 28.0667C63.1276 26.3595 64.3503 24.8499 66.1376 24.2409C66.4278 24.1428 66.6183 24.0648 66.6371 23.6737C66.6746 22.8988 67.1828 22.4268 67.8209 22.4543C68.4532 22.4817 68.8935 22.9334 68.9065 23.6968C68.9138 24.111 69.1678 24.1442 69.4335 24.2438C71.2265 24.9091 72.3179 26.1488 72.5547 28.0783C72.6528 28.8778 72.2327 29.4652 71.5297 29.5445C70.893 29.6167 70.3906 29.1549 70.2823 28.3958C70.1279 27.3249 69.5215 26.6236 68.524 26.3595C67.4614 26.078 66.3181 26.4258 65.7117 27.2138C64.7257 28.4939 65.6121 30.2589 67.3416 30.5288C68.2425 30.6702 69.1852 30.7755 70.008 31.132C71.6856 31.8608 72.6918 33.5926 72.5734 35.2147C72.4392 37.0548 71.251 38.5787 69.4623 39.1791C69.1289 39.2902 68.9094 39.3927 68.8935 39.8213C68.8704 40.4087 68.3998 40.8142 67.8411 40.8517C67.3041 40.8864 66.7743 40.5198 66.6992 39.9339C66.6371 39.4547 66.4119 39.2844 65.986 39.1387C64.2825 38.5528 63.0886 36.9624 63.0135 35.2623Z" fill="black"/>
<path d="M86.7487 36.6307C86.7343 37.2383 86.1857 37.7694 85.5851 37.7578C84.9658 37.7463 84.4576 37.2166 84.4677 36.5961C84.4793 35.977 85.0091 35.4589 85.6212 35.4704C86.2276 35.4819 86.7632 36.0332 86.7487 36.6307Z" fill="black"/>
<path d="M51.6361 58.3961C52.241 58.4062 52.7737 58.9518 52.7621 59.5536C52.752 60.1554 52.2005 60.6922 51.6029 60.6807C50.998 60.6691 50.4653 60.1222 50.4768 59.5204C50.4884 58.9142 51.0326 58.386 51.6361 58.3961Z" fill="black"/>
<path d="M42.2479 55.315C42.8528 55.3207 43.3798 55.8576 43.3769 56.4666C43.374 57.0843 42.8528 57.5966 42.232 57.5923C41.6069 57.588 41.106 57.0785 41.1103 56.4493C41.1146 55.8345 41.6401 55.3106 42.2479 55.315Z" fill="black"/>
</svg>
