<svg width="148" height="24" viewBox="0 0 148 24" fill="none" xmlns="http://www.w3.org/2000/svg">
<path d="M146 9.24L138.81 8.62L136 2L133.19 8.63L126 9.24L131.46 13.97L129.82 21L136 17.27L142.18 21L140.55 13.97L146 9.24ZM136 15.4V6.1L137.71 10.14L142.09 10.52L138.77 13.4L139.77 17.68L136 15.4Z" fill="#FFC600"/>
<path d="M105 17.27L111.18 21L109.54 13.97L115 9.24L107.81 8.63L105 2L102.19 8.63L95 9.24L100.46 13.97L98.82 21L105 17.27Z" fill="#FFC600"/>
<path d="M74 17.27L80.18 21L78.54 13.97L84 9.24L76.81 8.63L74 2L71.19 8.63L64 9.24L69.46 13.97L67.82 21L74 17.27Z" fill="#FFC600"/>
<path d="M43 17.27L49.18 21L47.54 13.97L53 9.24L45.81 8.63L43 2L40.19 8.63L33 9.24L38.46 13.97L36.82 21L43 17.27Z" fill="#FFC600"/>
<path d="M12 17.27L18.18 21L16.54 13.97L22 9.24L14.81 8.63L12 2L9.19 8.63L2 9.24L7.46 13.97L5.82 21L12 17.27Z" fill="#FFC600"/>
</svg>
