<svg width="1856" height="289" viewBox="0 0 1856 289" fill="none" xmlns="http://www.w3.org/2000/svg">
<path d="M21.9162 201.844C57.0757 208.283 92.1731 214.723 127.333 221.163C137.955 223.119 146.341 217.035 144.353 211.45C140.378 200.527 136.402 189.569 132.488 178.647C253.186 160.573 381.214 167.653 501.042 188.004C628.573 209.671 754.986 258.697 893.015 247.312C922.335 244.893 958.054 237.991 991.971 227.602C1042.16 258.946 1115.53 280.649 1182.74 286.946C1271.94 295.307 1362.89 277.518 1422.83 240.446C1506.88 248.913 1604.09 233.223 1671.56 209.6C1794.68 166.443 1865.31 86.6417 1854.99 4.34959C1854.25 -1.37849 1838.84 -1.5208 1839.22 4.34959C1843.56 66.7536 1803 128.98 1722.87 171.958C1650 211.058 1541.85 236.034 1440.97 227.922C1449.04 221.661 1456.31 214.936 1462.71 207.821C1502.72 162.957 1500.23 71.4855 1377.3 76.3597C1265.17 80.8069 1239.83 154.881 1300.33 199.851C1325.18 218.316 1357.67 230.021 1393.76 236.461C1342.01 264.71 1269.15 278.763 1196.16 273.284C1131.37 268.41 1062.66 248.807 1015.2 219.846C1080.68 195.902 1131.3 158.901 1101.36 116.99C1083.66 92.1919 1037.88 80.7002 994.58 91.4448C946.065 103.506 924.509 133.178 932.895 161.996C938.672 181.884 954.14 200.314 975.882 216.609C909.352 235.999 828.411 237.493 754.799 225.432C695.724 215.755 640.189 200.42 582.853 187.897C525.89 175.409 467.001 165.59 406.869 159.47C313.69 150.006 217.902 149.651 126.836 163.17C124.786 157.478 122.674 151.75 120.624 146.057C120.313 140.934 120.251 135.846 120.375 130.687C120.499 126.845 115.281 124.355 109.629 123.75C103.603 121.188 93.6018 122.469 88.8186 126.098C60.1816 147.836 31.6068 169.645 2.72129 191.348C-6.65872 198.393 10.2998 205.401 21.9162 201.844ZM1299.09 170.393C1282.32 144.848 1290.89 115.069 1332.88 99.6989C1377.86 83.2618 1434.26 90.3063 1454.14 120.085C1471.35 145.844 1461.84 176.441 1440.6 200.421C1432.83 209.208 1423.45 217.285 1412.83 224.685C1362.64 217.071 1318.04 199.175 1299.09 170.393ZM963.21 170.499C948.115 143.069 966.688 102.332 1028.19 101.976C1056.33 101.798 1075.71 115.46 1081.3 130.154C1087.88 147.445 1074.22 164.593 1056.33 178.077C1039.74 190.601 1020.24 200.776 998.866 208.853C983.15 197.218 970.788 184.339 963.21 170.499Z" fill="#3F3E3E" fill-opacity="0.2"/>
</svg>
